<mxfile host="Electron" modified="2024-10-28T09:36:17.082Z" agent="Mozilla/5.0 (Windows NT 10.0; Win64; x64) AppleWebKit/537.36 (KHTML, like Gecko) draw.io/24.6.4 Chrome/124.0.6367.207 Electron/30.0.6 Safari/537.36" etag="-0cgBfsSPwUJZ5rHqmdu" version="24.6.4" type="device">
  <diagram name="Page-1" id="SpkLmQyRl0QkQ235IwdW">
    <mxGraphModel dx="1434" dy="844" grid="1" gridSize="10" guides="1" tooltips="1" connect="1" arrows="1" fold="1" page="1" pageScale="1" pageWidth="827" pageHeight="1169" math="0" shadow="0">
      <root>
        <mxCell id="0" />
        <mxCell id="1" parent="0" />
        <mxCell id="3OYntuXGsv7Qcak_kdjn-3" style="edgeStyle=orthogonalEdgeStyle;rounded=0;orthogonalLoop=1;jettySize=auto;html=1;exitX=0.5;exitY=1;exitDx=0;exitDy=0;entryX=0.5;entryY=0;entryDx=0;entryDy=0;" edge="1" parent="1" source="3OYntuXGsv7Qcak_kdjn-1" target="3OYntuXGsv7Qcak_kdjn-2">
          <mxGeometry relative="1" as="geometry" />
        </mxCell>
        <mxCell id="3OYntuXGsv7Qcak_kdjn-1" value="Start" style="ellipse;whiteSpace=wrap;html=1;aspect=fixed;" vertex="1" parent="1">
          <mxGeometry x="160" y="30" width="50" height="50" as="geometry" />
        </mxCell>
        <mxCell id="3OYntuXGsv7Qcak_kdjn-6" style="edgeStyle=orthogonalEdgeStyle;rounded=0;orthogonalLoop=1;jettySize=auto;html=1;exitX=0.5;exitY=1;exitDx=0;exitDy=0;entryX=0.5;entryY=0;entryDx=0;entryDy=0;" edge="1" parent="1" source="3OYntuXGsv7Qcak_kdjn-2" target="3OYntuXGsv7Qcak_kdjn-5">
          <mxGeometry relative="1" as="geometry" />
        </mxCell>
        <mxCell id="3OYntuXGsv7Qcak_kdjn-25" style="edgeStyle=orthogonalEdgeStyle;rounded=0;orthogonalLoop=1;jettySize=auto;html=1;exitX=1;exitY=0.5;exitDx=0;exitDy=0;entryX=0;entryY=0.5;entryDx=0;entryDy=0;" edge="1" parent="1" source="3OYntuXGsv7Qcak_kdjn-2" target="3OYntuXGsv7Qcak_kdjn-4">
          <mxGeometry relative="1" as="geometry" />
        </mxCell>
        <mxCell id="3OYntuXGsv7Qcak_kdjn-2" value="All party members have selected an action ?" style="rhombus;whiteSpace=wrap;html=1;" vertex="1" parent="1">
          <mxGeometry x="107.5" y="120" width="155" height="130" as="geometry" />
        </mxCell>
        <mxCell id="3OYntuXGsv7Qcak_kdjn-4" value="Turn Processing" style="rounded=1;whiteSpace=wrap;html=1;" vertex="1" parent="1">
          <mxGeometry x="350" y="167.5" width="120" height="35" as="geometry" />
        </mxCell>
        <mxCell id="3OYntuXGsv7Qcak_kdjn-10" style="edgeStyle=orthogonalEdgeStyle;rounded=0;orthogonalLoop=1;jettySize=auto;html=1;exitX=0.5;exitY=1;exitDx=0;exitDy=0;entryX=0.5;entryY=0;entryDx=0;entryDy=0;" edge="1" parent="1" source="3OYntuXGsv7Qcak_kdjn-5" target="3OYntuXGsv7Qcak_kdjn-9">
          <mxGeometry relative="1" as="geometry" />
        </mxCell>
        <mxCell id="3OYntuXGsv7Qcak_kdjn-5" value="Action Menu opens for character" style="rounded=1;whiteSpace=wrap;html=1;" vertex="1" parent="1">
          <mxGeometry x="125" y="310" width="120" height="35" as="geometry" />
        </mxCell>
        <mxCell id="3OYntuXGsv7Qcak_kdjn-7" value="No" style="text;html=1;align=center;verticalAlign=middle;whiteSpace=wrap;rounded=0;" vertex="1" parent="1">
          <mxGeometry x="140" y="260" width="60" height="30" as="geometry" />
        </mxCell>
        <mxCell id="3OYntuXGsv7Qcak_kdjn-12" style="edgeStyle=orthogonalEdgeStyle;rounded=0;orthogonalLoop=1;jettySize=auto;html=1;exitX=0.5;exitY=1;exitDx=0;exitDy=0;entryX=0.5;entryY=0;entryDx=0;entryDy=0;" edge="1" parent="1" source="3OYntuXGsv7Qcak_kdjn-9" target="3OYntuXGsv7Qcak_kdjn-11">
          <mxGeometry relative="1" as="geometry" />
        </mxCell>
        <mxCell id="3OYntuXGsv7Qcak_kdjn-9" value="Action is selected by the player" style="rounded=1;whiteSpace=wrap;html=1;" vertex="1" parent="1">
          <mxGeometry x="125" y="380" width="120" height="35" as="geometry" />
        </mxCell>
        <mxCell id="3OYntuXGsv7Qcak_kdjn-13" style="edgeStyle=orthogonalEdgeStyle;rounded=0;orthogonalLoop=1;jettySize=auto;html=1;exitX=0;exitY=0.5;exitDx=0;exitDy=0;entryX=0;entryY=0.5;entryDx=0;entryDy=0;" edge="1" parent="1" source="3OYntuXGsv7Qcak_kdjn-11" target="3OYntuXGsv7Qcak_kdjn-9">
          <mxGeometry relative="1" as="geometry" />
        </mxCell>
        <mxCell id="3OYntuXGsv7Qcak_kdjn-16" style="edgeStyle=orthogonalEdgeStyle;rounded=0;orthogonalLoop=1;jettySize=auto;html=1;exitX=0.5;exitY=1;exitDx=0;exitDy=0;entryX=0.5;entryY=0;entryDx=0;entryDy=0;" edge="1" parent="1" source="3OYntuXGsv7Qcak_kdjn-11" target="3OYntuXGsv7Qcak_kdjn-15">
          <mxGeometry relative="1" as="geometry" />
        </mxCell>
        <mxCell id="3OYntuXGsv7Qcak_kdjn-11" value="All conditions for the action are met ?" style="rhombus;whiteSpace=wrap;html=1;" vertex="1" parent="1">
          <mxGeometry x="117.5" y="450" width="135" height="80" as="geometry" />
        </mxCell>
        <mxCell id="3OYntuXGsv7Qcak_kdjn-14" value="No" style="text;html=1;align=center;verticalAlign=middle;whiteSpace=wrap;rounded=0;" vertex="1" parent="1">
          <mxGeometry x="47.5" y="460" width="60" height="30" as="geometry" />
        </mxCell>
        <mxCell id="3OYntuXGsv7Qcak_kdjn-19" style="edgeStyle=orthogonalEdgeStyle;rounded=0;orthogonalLoop=1;jettySize=auto;html=1;exitX=0.5;exitY=1;exitDx=0;exitDy=0;entryX=0.5;entryY=0;entryDx=0;entryDy=0;" edge="1" parent="1" source="3OYntuXGsv7Qcak_kdjn-15" target="3OYntuXGsv7Qcak_kdjn-18">
          <mxGeometry relative="1" as="geometry" />
        </mxCell>
        <mxCell id="3OYntuXGsv7Qcak_kdjn-15" value="Player can chose a target" style="rounded=1;whiteSpace=wrap;html=1;" vertex="1" parent="1">
          <mxGeometry x="125" y="567" width="120" height="35" as="geometry" />
        </mxCell>
        <mxCell id="3OYntuXGsv7Qcak_kdjn-17" value="Yes" style="text;html=1;align=center;verticalAlign=middle;whiteSpace=wrap;rounded=0;" vertex="1" parent="1">
          <mxGeometry x="140" y="530" width="60" height="30" as="geometry" />
        </mxCell>
        <mxCell id="3OYntuXGsv7Qcak_kdjn-20" style="edgeStyle=orthogonalEdgeStyle;rounded=0;orthogonalLoop=1;jettySize=auto;html=1;exitX=0;exitY=0.5;exitDx=0;exitDy=0;entryX=0;entryY=0.5;entryDx=0;entryDy=0;" edge="1" parent="1" source="3OYntuXGsv7Qcak_kdjn-18" target="3OYntuXGsv7Qcak_kdjn-15">
          <mxGeometry relative="1" as="geometry" />
        </mxCell>
        <mxCell id="3OYntuXGsv7Qcak_kdjn-23" style="edgeStyle=orthogonalEdgeStyle;rounded=0;orthogonalLoop=1;jettySize=auto;html=1;exitX=0.5;exitY=1;exitDx=0;exitDy=0;entryX=0;entryY=0.5;entryDx=0;entryDy=0;" edge="1" parent="1" source="3OYntuXGsv7Qcak_kdjn-18" target="3OYntuXGsv7Qcak_kdjn-2">
          <mxGeometry relative="1" as="geometry">
            <Array as="points">
              <mxPoint x="185" y="740" />
              <mxPoint x="50" y="740" />
              <mxPoint x="50" y="185" />
            </Array>
          </mxGeometry>
        </mxCell>
        <mxCell id="3OYntuXGsv7Qcak_kdjn-18" value="Target is eligible ?" style="rhombus;whiteSpace=wrap;html=1;" vertex="1" parent="1">
          <mxGeometry x="117.5" y="640" width="135" height="80" as="geometry" />
        </mxCell>
        <mxCell id="3OYntuXGsv7Qcak_kdjn-21" value="No" style="text;html=1;align=center;verticalAlign=middle;whiteSpace=wrap;rounded=0;" vertex="1" parent="1">
          <mxGeometry x="47.5" y="650" width="60" height="30" as="geometry" />
        </mxCell>
        <mxCell id="3OYntuXGsv7Qcak_kdjn-24" value="Yes" style="text;html=1;align=center;verticalAlign=middle;whiteSpace=wrap;rounded=0;" vertex="1" parent="1">
          <mxGeometry x="140" y="740" width="60" height="30" as="geometry" />
        </mxCell>
        <mxCell id="3OYntuXGsv7Qcak_kdjn-26" value="Yes" style="text;html=1;align=center;verticalAlign=middle;whiteSpace=wrap;rounded=0;" vertex="1" parent="1">
          <mxGeometry x="270" y="160" width="60" height="30" as="geometry" />
        </mxCell>
      </root>
    </mxGraphModel>
  </diagram>
</mxfile>
